<?xml version="1.0" encoding="UTF-8" standalone="no"?><svg xmlns="http://www.w3.org/2000/svg" xmlns:xlink="http://www.w3.org/1999/xlink" clip-rule="evenodd" stroke-miterlimit="4.00" viewBox="0 0 1024 768"><desc>SVG generated by Keynote</desc><defs></defs><g transform="matrix(1.00, 0.00, -0.00, -1.00, 0.0, 768.0)"><path d="M 0.0 768.0 L 1024.0 768.0 L 1024.0 0.0 L 0.0 0.0 Z M 0.0 768.0 " fill="#FEFFFF"></path><image xlink:href="../../28BE283A-8F01-4AB9-9CF6-4C338739B3CB/assets/543B62685277D0E0189542B089A115CD.png" width="550.00" height="400.00" transform="matrix(1.61, 0.00, -0.00, -1.61, 69.0, 649.0)"></image><text xml:space="preserve" font-family="Helvetica" font-size="72.0" fill="#000000" transform="matrix(1.00, 0.00, -0.00, -1.00, 180.0, 652.0)">S</text><text xml:space="preserve" font-family="Helvetica" font-size="72.0" fill="#000000" transform="matrix(1.00, 0.00, -0.00, -1.00, 228.0, 652.0)">o</text><text xml:space="preserve" font-family="Helvetica" font-size="72.0" fill="#000000" transform="matrix(1.00, 0.00, -0.00, -1.00, 268.1, 652.0)">m</text><text xml:space="preserve" font-family="Helvetica" font-size="72.0" fill="#000000" transform="matrix(1.00, 0.00, -0.00, -1.00, 328.1, 652.0)">e</text><text xml:space="preserve" font-family="Helvetica" font-size="72.0" fill="#000000" transform="matrix(1.00, 0.00, -0.00, -1.00, 368.1, 652.0)">t</text><text xml:space="preserve" font-family="Helvetica" font-size="72.0" fill="#000000" transform="matrix(1.00, 0.00, -0.00, -1.00, 388.1, 652.0)">h</text><text xml:space="preserve" font-family="Helvetica" font-size="72.0" fill="#000000" transform="matrix(1.00, 0.00, -0.00, -1.00, 428.2, 652.0)">i</text><text xml:space="preserve" font-family="Helvetica" font-size="72.0" fill="#000000" transform="matrix(1.00, 0.00, -0.00, -1.00, 444.2, 652.0)">n</text><text xml:space="preserve" font-family="Helvetica" font-size="72.0" fill="#000000" transform="matrix(1.00, 0.00, -0.00, -1.00, 484.2, 652.0)">g</text><text xml:space="preserve" font-family="Helvetica" font-size="72.0" fill="#000000" transform="matrix(1.00, 0.00, -0.00, -1.00, 524.3, 652.0)"> </text><text xml:space="preserve" font-family="Helvetica" font-size="72.0" fill="#000000" transform="matrix(1.00, 0.00, -0.00, -1.00, 543.0, 652.0)">T</text><text xml:space="preserve" font-family="Helvetica" font-size="72.0" fill="#000000" transform="matrix(1.00, 0.00, -0.00, -1.00, 579.0, 652.0)">o</text><text xml:space="preserve" font-family="Helvetica" font-size="72.0" fill="#000000" transform="matrix(1.00, 0.00, -0.00, -1.00, 619.1, 652.0)"> </text><text xml:space="preserve" font-family="Helvetica" font-size="72.0" fill="#000000" transform="matrix(1.00, 0.00, -0.00, -1.00, 639.1, 652.0)">N</text><text xml:space="preserve" font-family="Helvetica" font-size="72.0" fill="#000000" transform="matrix(1.00, 0.00, -0.00, -1.00, 691.1, 652.0)">o</text><text xml:space="preserve" font-family="Helvetica" font-size="72.0" fill="#000000" transform="matrix(1.00, 0.00, -0.00, -1.00, 731.1, 652.0)">t</text><text xml:space="preserve" font-family="Helvetica" font-size="72.0" fill="#000000" transform="matrix(1.00, 0.00, -0.00, -1.00, 751.1, 652.0)">i</text><text xml:space="preserve" font-family="Helvetica" font-size="72.0" fill="#000000" transform="matrix(1.00, 0.00, -0.00, -1.00, 767.1, 652.0)">c</text><text xml:space="preserve" font-family="Helvetica" font-size="72.0" fill="#000000" transform="matrix(1.00, 0.00, -0.00, -1.00, 803.1, 652.0)">e</text><g><clipPath id="clip-58"><path d="M 179.5 643.8 L 843.5 643.8 L 843.5 649.4 L 179.5 649.4 Z M 179.5 643.8 "></path></clipPath><g clip-path="url(#clip-58)"><path d="M 4.5 78.9 L 667.6 78.9 " fill="none" stroke="#000000" stroke-width="3.55" stroke-miterlimit="0.00" transform="matrix(1.00, 0.00, 0.00, -1.00, 176.0, 725.5)"></path></g></g><text xml:space="preserve" font-family="Helvetica-Bold" font-weight="bold" font-size="24.0" fill="#000000" transform="matrix(1.00, 0.00, -0.00, -1.00, 26.0, 729.0)">B</text><text xml:space="preserve" font-family="Helvetica-Bold" font-weight="bold" font-size="24.0" fill="#000000" transform="matrix(1.00, 0.00, -0.00, -1.00, 43.3, 729.0)">i</text><text xml:space="preserve" font-family="Helvetica-Bold" font-weight="bold" font-size="24.0" fill="#000000" transform="matrix(1.00, 0.00, -0.00, -1.00, 50.0, 729.0)">c</text><text xml:space="preserve" font-family="Helvetica-Bold" font-weight="bold" font-size="24.0" fill="#000000" transform="matrix(1.00, 0.00, -0.00, -1.00, 63.4, 729.0)">a</text><text xml:space="preserve" font-family="Helvetica-Bold" font-weight="bold" font-size="24.0" fill="#000000" transform="matrix(1.00, 0.00, -0.00, -1.00, 76.7, 729.0)">t</text><text xml:space="preserve" font-family="Helvetica-Bold" font-weight="bold" font-size="24.0" fill="#000000" transform="matrix(1.00, 0.00, -0.00, -1.00, 84.7, 729.0)">e</text><text xml:space="preserve" font-family="Helvetica-Bold" font-weight="bold" font-size="24.0" fill="#000000" transform="matrix(1.00, 0.00, -0.00, -1.00, 98.0, 729.0)">g</text><text xml:space="preserve" font-family="Helvetica-Bold" font-weight="bold" font-size="24.0" fill="#000000" transform="matrix(1.00, 0.00, -0.00, -1.00, 112.7, 729.0)">o</text><text xml:space="preserve" font-family="Helvetica-Bold" font-weight="bold" font-size="24.0" fill="#000000" transform="matrix(1.00, 0.00, -0.00, -1.00, 127.4, 729.0)">r</text><text xml:space="preserve" font-family="Helvetica-Bold" font-weight="bold" font-size="24.0" fill="#000000" transform="matrix(1.00, 0.00, -0.00, -1.00, 136.7, 729.0)">i</text><text xml:space="preserve" font-family="Helvetica-Bold" font-weight="bold" font-size="24.0" fill="#000000" transform="matrix(1.00, 0.00, -0.00, -1.00, 143.4, 729.0)">e</text><text xml:space="preserve" font-family="Helvetica-Bold" font-weight="bold" font-size="24.0" fill="#000000" transform="matrix(1.00, 0.00, -0.00, -1.00, 156.7, 729.0)">s</text></g></svg>