<?xml version="1.0" encoding="UTF-8" standalone="no"?><svg xmlns="http://www.w3.org/2000/svg" xmlns:xlink="http://www.w3.org/1999/xlink" clip-rule="evenodd" stroke-miterlimit="4.00" viewBox="0 0 1024 768"><desc>SVG generated by Keynote</desc><defs></defs><g transform="matrix(1.00, 0.00, -0.00, -1.00, 0.0, 768.0)"><path d="M 0.0 768.0 L 1024.0 768.0 L 1024.0 0.0 L 0.0 0.0 Z M 0.0 768.0 " fill="#FEFFFF"></path><image xlink:href="../../8982BFD5-9815-4407-9C72-8A021A4903D7/assets/B5C8F76AA26B6A3FA87B596601EC644B.png" width="550.00" height="400.00" transform="matrix(1.00, 0.00, -0.00, -1.00, 482.0, 539.0)"></image><image xlink:href="../../8982BFD5-9815-4407-9C72-8A021A4903D7/assets/2DA98913EDC954B81300F26CE7331D8A.png" width="550.00" height="400.00" transform="matrix(1.15, 0.00, -0.00, -1.15, -11.0, 556.0)"></image><text xml:space="preserve" font-family="Helvetica" font-size="72.0" fill="#000000" transform="matrix(1.00, 0.00, -0.00, -1.00, 80.0, 652.0)">R</text><text xml:space="preserve" font-family="Helvetica" font-size="72.0" fill="#000000" transform="matrix(1.00, 0.00, -0.00, -1.00, 132.0, 652.0)">e</text><text xml:space="preserve" font-family="Helvetica" font-size="72.0" fill="#000000" transform="matrix(1.00, 0.00, -0.00, -1.00, 172.1, 652.0)">a</text><text xml:space="preserve" font-family="Helvetica" font-size="72.0" fill="#000000" transform="matrix(1.00, 0.00, -0.00, -1.00, 212.1, 652.0)">s</text><text xml:space="preserve" font-family="Helvetica" font-size="72.0" fill="#000000" transform="matrix(1.00, 0.00, -0.00, -1.00, 248.1, 652.0)">o</text><text xml:space="preserve" font-family="Helvetica" font-size="72.0" fill="#000000" transform="matrix(1.00, 0.00, -0.00, -1.00, 288.2, 652.0)">n</text><text xml:space="preserve" font-family="Helvetica" font-size="72.0" fill="#000000" transform="matrix(1.00, 0.00, -0.00, -1.00, 328.2, 652.0)">i</text><text xml:space="preserve" font-family="Helvetica" font-size="72.0" fill="#000000" transform="matrix(1.00, 0.00, -0.00, -1.00, 344.3, 652.0)">n</text><text xml:space="preserve" font-family="Helvetica" font-size="72.0" fill="#000000" transform="matrix(1.00, 0.00, -0.00, -1.00, 384.3, 652.0)">g</text><text xml:space="preserve" font-family="Helvetica" font-size="72.0" fill="#000000" transform="matrix(1.00, 0.00, -0.00, -1.00, 424.4, 652.0)"> </text><text xml:space="preserve" font-family="Helvetica" font-size="72.0" fill="#000000" transform="matrix(1.00, 0.00, -0.00, -1.00, 444.4, 652.0)">a</text><text xml:space="preserve" font-family="Helvetica" font-size="72.0" fill="#000000" transform="matrix(1.00, 0.00, -0.00, -1.00, 484.4, 652.0)">b</text><text xml:space="preserve" font-family="Helvetica" font-size="72.0" fill="#000000" transform="matrix(1.00, 0.00, -0.00, -1.00, 524.5, 652.0)">o</text><text xml:space="preserve" font-family="Helvetica" font-size="72.0" fill="#000000" transform="matrix(1.00, 0.00, -0.00, -1.00, 564.5, 652.0)">u</text><text xml:space="preserve" font-family="Helvetica" font-size="72.0" fill="#000000" transform="matrix(1.00, 0.00, -0.00, -1.00, 604.6, 652.0)">t</text><text xml:space="preserve" font-family="Helvetica" font-size="72.0" fill="#000000" transform="matrix(1.00, 0.00, -0.00, -1.00, 624.6, 652.0)"> </text><text xml:space="preserve" font-family="Helvetica" font-size="72.0" fill="#000000" transform="matrix(1.00, 0.00, -0.00, -1.00, 644.6, 652.0)">B</text><text xml:space="preserve" font-family="Helvetica" font-size="72.0" fill="#000000" transform="matrix(1.00, 0.00, -0.00, -1.00, 692.6, 652.0)">o</text><text xml:space="preserve" font-family="Helvetica" font-size="72.0" fill="#000000" transform="matrix(1.00, 0.00, -0.00, -1.00, 732.6, 652.0)">o</text><text xml:space="preserve" font-family="Helvetica" font-size="72.0" fill="#000000" transform="matrix(1.00, 0.00, -0.00, -1.00, 772.7, 652.0)">l</text><text xml:space="preserve" font-family="Helvetica" font-size="72.0" fill="#000000" transform="matrix(1.00, 0.00, -0.00, -1.00, 788.7, 652.0)">e</text><text xml:space="preserve" font-family="Helvetica" font-size="72.0" fill="#000000" transform="matrix(1.00, 0.00, -0.00, -1.00, 828.8, 652.0)">a</text><text xml:space="preserve" font-family="Helvetica" font-size="72.0" fill="#000000" transform="matrix(1.00, 0.00, -0.00, -1.00, 868.8, 652.0)">n</text><text xml:space="preserve" font-family="Helvetica" font-size="72.0" fill="#000000" transform="matrix(1.00, 0.00, -0.00, -1.00, 908.9, 652.0)">s</text><g><clipPath id="clip-75"><path d="M 78.7 643.8 L 944.3 643.8 L 944.3 649.4 L 78.7 649.4 Z M 78.7 643.8 "></path></clipPath><g clip-path="url(#clip-75)"><path d="M 4.5 78.9 L 869.2 78.9 " fill="none" stroke="#000000" stroke-width="3.55" stroke-miterlimit="0.00" transform="matrix(1.00, 0.00, 0.00, -1.00, 75.2, 725.5)"></path></g></g><text xml:space="preserve" font-family="Helvetica-Bold" font-weight="bold" font-size="24.0" fill="#000000" transform="matrix(1.00, 0.00, -0.00, -1.00, 25.0, 726.0)">E</text><text xml:space="preserve" font-family="Helvetica-Bold" font-weight="bold" font-size="24.0" fill="#000000" transform="matrix(1.00, 0.00, -0.00, -1.00, 41.0, 726.0)">n</text><text xml:space="preserve" font-family="Helvetica-Bold" font-weight="bold" font-size="24.0" fill="#000000" transform="matrix(1.00, 0.00, -0.00, -1.00, 55.7, 726.0)">r</text><text xml:space="preserve" font-family="Helvetica-Bold" font-weight="bold" font-size="24.0" fill="#000000" transform="matrix(1.00, 0.00, -0.00, -1.00, 65.0, 726.0)">i</text><text xml:space="preserve" font-family="Helvetica-Bold" font-weight="bold" font-size="24.0" fill="#000000" transform="matrix(1.00, 0.00, -0.00, -1.00, 71.7, 726.0)">c</text><text xml:space="preserve" font-family="Helvetica-Bold" font-weight="bold" font-size="24.0" fill="#000000" transform="matrix(1.00, 0.00, -0.00, -1.00, 85.0, 726.0)">h</text><text xml:space="preserve" font-family="Helvetica-Bold" font-weight="bold" font-size="24.0" fill="#000000" transform="matrix(1.00, 0.00, -0.00, -1.00, 99.7, 726.0)">e</text><text xml:space="preserve" font-family="Helvetica-Bold" font-weight="bold" font-size="24.0" fill="#000000" transform="matrix(1.00, 0.00, -0.00, -1.00, 113.0, 726.0)">d</text><text xml:space="preserve" font-family="Helvetica-Bold" font-weight="bold" font-size="24.0" fill="#000000" transform="matrix(1.00, 0.00, -0.00, -1.00, 127.7, 726.0)"> </text><text xml:space="preserve" font-family="Helvetica-Bold" font-weight="bold" font-size="24.0" fill="#000000" transform="matrix(1.00, 0.00, -0.00, -1.00, 134.3, 726.0)">C</text><text xml:space="preserve" font-family="Helvetica-Bold" font-weight="bold" font-size="24.0" fill="#000000" transform="matrix(1.00, 0.00, -0.00, -1.00, 151.7, 726.0)">a</text><text xml:space="preserve" font-family="Helvetica-Bold" font-weight="bold" font-size="24.0" fill="#000000" transform="matrix(1.00, 0.00, -0.00, -1.00, 165.0, 726.0)">t</text><text xml:space="preserve" font-family="Helvetica-Bold" font-weight="bold" font-size="24.0" fill="#000000" transform="matrix(1.00, 0.00, -0.00, -1.00, 173.0, 726.0)">e</text><text xml:space="preserve" font-family="Helvetica-Bold" font-weight="bold" font-size="24.0" fill="#000000" transform="matrix(1.00, 0.00, -0.00, -1.00, 186.4, 726.0)">g</text><text xml:space="preserve" font-family="Helvetica-Bold" font-weight="bold" font-size="24.0" fill="#000000" transform="matrix(1.00, 0.00, -0.00, -1.00, 201.0, 726.0)">o</text><text xml:space="preserve" font-family="Helvetica-Bold" font-weight="bold" font-size="24.0" fill="#000000" transform="matrix(1.00, 0.00, -0.00, -1.00, 215.7, 726.0)">r</text><text xml:space="preserve" font-family="Helvetica-Bold" font-weight="bold" font-size="24.0" fill="#000000" transform="matrix(1.00, 0.00, -0.00, -1.00, 225.0, 726.0)">i</text><text xml:space="preserve" font-family="Helvetica-Bold" font-weight="bold" font-size="24.0" fill="#000000" transform="matrix(1.00, 0.00, -0.00, -1.00, 231.7, 726.0)">e</text><text xml:space="preserve" font-family="Helvetica-Bold" font-weight="bold" font-size="24.0" fill="#000000" transform="matrix(1.00, 0.00, -0.00, -1.00, 245.1, 726.0)">s</text></g></svg>