<?xml version="1.0" encoding="UTF-8" standalone="no"?><svg xmlns="http://www.w3.org/2000/svg" xmlns:xlink="http://www.w3.org/1999/xlink" clip-rule="evenodd" stroke-miterlimit="4.00" viewBox="0 0 858 88"><desc>SVG generated by Keynote</desc><defs></defs><g transform="matrix(1.00, 0.00, -0.00, -1.00, 0.0, 88.0)"><text xml:space="preserve" font-family="Helvetica" font-size="72.0" fill="#000000" transform="matrix(1.00, 0.00, -0.00, -1.00, 1.0, 18.0)">R</text><text xml:space="preserve" font-family="Helvetica" font-size="72.0" fill="#000000" transform="matrix(1.00, 0.00, -0.00, -1.00, 53.0, 18.0)">e</text><text xml:space="preserve" font-family="Helvetica" font-size="72.0" fill="#000000" transform="matrix(1.00, 0.00, -0.00, -1.00, 93.1, 18.0)">a</text><text xml:space="preserve" font-family="Helvetica" font-size="72.0" fill="#000000" transform="matrix(1.00, 0.00, -0.00, -1.00, 133.1, 18.0)">s</text><text xml:space="preserve" font-family="Helvetica" font-size="72.0" fill="#000000" transform="matrix(1.00, 0.00, -0.00, -1.00, 169.1, 18.0)">o</text><text xml:space="preserve" font-family="Helvetica" font-size="72.0" fill="#000000" transform="matrix(1.00, 0.00, -0.00, -1.00, 209.2, 18.0)">n</text><text xml:space="preserve" font-family="Helvetica" font-size="72.0" fill="#000000" transform="matrix(1.00, 0.00, -0.00, -1.00, 249.2, 18.0)">i</text><text xml:space="preserve" font-family="Helvetica" font-size="72.0" fill="#000000" transform="matrix(1.00, 0.00, -0.00, -1.00, 265.3, 18.0)">n</text><text xml:space="preserve" font-family="Helvetica" font-size="72.0" fill="#000000" transform="matrix(1.00, 0.00, -0.00, -1.00, 305.3, 18.0)">g</text><text xml:space="preserve" font-family="Helvetica" font-size="72.0" fill="#000000" transform="matrix(1.00, 0.00, -0.00, -1.00, 345.4, 18.0)"> </text><text xml:space="preserve" font-family="Helvetica" font-size="72.0" fill="#000000" transform="matrix(1.00, 0.00, -0.00, -1.00, 365.4, 18.0)">a</text><text xml:space="preserve" font-family="Helvetica" font-size="72.0" fill="#000000" transform="matrix(1.00, 0.00, -0.00, -1.00, 405.4, 18.0)">b</text><text xml:space="preserve" font-family="Helvetica" font-size="72.0" fill="#000000" transform="matrix(1.00, 0.00, -0.00, -1.00, 445.5, 18.0)">o</text><text xml:space="preserve" font-family="Helvetica" font-size="72.0" fill="#000000" transform="matrix(1.00, 0.00, -0.00, -1.00, 485.5, 18.0)">u</text><text xml:space="preserve" font-family="Helvetica" font-size="72.0" fill="#000000" transform="matrix(1.00, 0.00, -0.00, -1.00, 525.6, 18.0)">t</text><text xml:space="preserve" font-family="Helvetica" font-size="72.0" fill="#000000" transform="matrix(1.00, 0.00, -0.00, -1.00, 545.6, 18.0)"> </text><text xml:space="preserve" font-family="Helvetica" font-size="72.0" fill="#000000" transform="matrix(1.00, 0.00, -0.00, -1.00, 565.6, 18.0)">N</text><text xml:space="preserve" font-family="Helvetica" font-size="72.0" fill="#000000" transform="matrix(1.00, 0.00, -0.00, -1.00, 617.6, 18.0)">u</text><text xml:space="preserve" font-family="Helvetica" font-size="72.0" fill="#000000" transform="matrix(1.00, 0.00, -0.00, -1.00, 657.6, 18.0)">m</text><text xml:space="preserve" font-family="Helvetica" font-size="72.0" fill="#000000" transform="matrix(1.00, 0.00, -0.00, -1.00, 717.6, 18.0)">b</text><text xml:space="preserve" font-family="Helvetica" font-size="72.0" fill="#000000" transform="matrix(1.00, 0.00, -0.00, -1.00, 757.7, 18.0)">e</text><text xml:space="preserve" font-family="Helvetica" font-size="72.0" fill="#000000" transform="matrix(1.00, 0.00, -0.00, -1.00, 797.7, 18.0)">r</text><text xml:space="preserve" font-family="Helvetica" font-size="72.0" fill="#000000" transform="matrix(1.00, 0.00, -0.00, -1.00, 821.7, 18.0)">s</text><g><clipPath id="clip-67"><path d="M -0.3 9.8 L 857.3 9.8 L 857.3 15.4 L -0.3 15.4 Z M -0.3 9.8 "></path></clipPath><g clip-path="url(#clip-67)"><path d="M 4.5 78.9 L 861.0 78.9 " fill="none" stroke="#000000" stroke-width="3.55" stroke-miterlimit="0.00" transform="matrix(1.00, 0.00, 0.00, -1.00, -3.8, 91.5)"></path></g></g></g></svg>