<?xml version="1.0" encoding="UTF-8" standalone="no"?><svg xmlns="http://www.w3.org/2000/svg" xmlns:xlink="http://www.w3.org/1999/xlink" clip-rule="evenodd" stroke-miterlimit="4.00" viewBox="0 0 722 87"><desc>SVG generated by Keynote</desc><defs></defs><g transform="matrix(1.00, 0.00, -0.00, -1.00, 0.0, 87.0)"><text xml:space="preserve" font-family="Helvetica" font-size="72.0" fill="#000000" transform="matrix(1.00, 0.00, -0.00, -1.00, 1.0, 17.0)">M</text><text xml:space="preserve" font-family="Helvetica" font-size="72.0" fill="#000000" transform="matrix(1.00, 0.00, -0.00, -1.00, 61.0, 17.0)">u</text><text xml:space="preserve" font-family="Helvetica" font-size="72.0" fill="#000000" transform="matrix(1.00, 0.00, -0.00, -1.00, 101.0, 17.0)">l</text><text xml:space="preserve" font-family="Helvetica" font-size="72.0" fill="#000000" transform="matrix(1.00, 0.00, -0.00, -1.00, 117.0, 17.0)">t</text><text xml:space="preserve" font-family="Helvetica" font-size="72.0" fill="#000000" transform="matrix(1.00, 0.00, -0.00, -1.00, 137.0, 17.0)">i</text><text xml:space="preserve" font-family="Helvetica" font-size="72.0" fill="#000000" transform="matrix(1.00, 0.00, -0.00, -1.00, 153.0, 17.0)">p</text><text xml:space="preserve" font-family="Helvetica" font-size="72.0" fill="#000000" transform="matrix(1.00, 0.00, -0.00, -1.00, 193.1, 17.0)">l</text><text xml:space="preserve" font-family="Helvetica" font-size="72.0" fill="#000000" transform="matrix(1.00, 0.00, -0.00, -1.00, 209.1, 17.0)">e</text><text xml:space="preserve" font-family="Helvetica" font-size="72.0" fill="#000000" transform="matrix(1.00, 0.00, -0.00, -1.00, 249.2, 17.0)"> </text><text xml:space="preserve" font-family="Helvetica" font-size="72.0" fill="#000000" transform="matrix(1.00, 0.00, -0.00, -1.00, 269.2, 17.0)">I</text><text xml:space="preserve" font-family="Helvetica" font-size="72.0" fill="#000000" transform="matrix(1.00, 0.00, -0.00, -1.00, 289.1, 17.0)">n</text><text xml:space="preserve" font-family="Helvetica" font-size="72.0" fill="#000000" transform="matrix(1.00, 0.00, -0.00, -1.00, 329.2, 17.0)">p</text><text xml:space="preserve" font-family="Helvetica" font-size="72.0" fill="#000000" transform="matrix(1.00, 0.00, -0.00, -1.00, 369.3, 17.0)">u</text><text xml:space="preserve" font-family="Helvetica" font-size="72.0" fill="#000000" transform="matrix(1.00, 0.00, -0.00, -1.00, 409.3, 17.0)">t</text><text xml:space="preserve" font-family="Helvetica" font-size="72.0" fill="#000000" transform="matrix(1.00, 0.00, -0.00, -1.00, 429.3, 17.0)">s</text><text xml:space="preserve" font-family="Helvetica" font-size="72.0" fill="#000000" transform="matrix(1.00, 0.00, -0.00, -1.00, 465.3, 17.0)"> </text><text xml:space="preserve" font-family="Helvetica" font-size="72.0" fill="#000000" transform="matrix(1.00, 0.00, -0.00, -1.00, 485.3, 17.0)">i</text><text xml:space="preserve" font-family="Helvetica" font-size="72.0" fill="#000000" transform="matrix(1.00, 0.00, -0.00, -1.00, 501.3, 17.0)">n</text><text xml:space="preserve" font-family="Helvetica" font-size="72.0" fill="#000000" transform="matrix(1.00, 0.00, -0.00, -1.00, 541.4, 17.0)"> </text><text xml:space="preserve" font-family="Helvetica-Bold" font-weight="bold" font-size="72.0" fill="#000000" transform="matrix(1.00, 0.00, -0.00, -1.00, 561.3, 17.0)">B</text><text xml:space="preserve" font-family="Helvetica-Bold" font-weight="bold" font-size="72.0" fill="#000000" transform="matrix(1.00, 0.00, -0.00, -1.00, 613.3, 17.0)">o</text><text xml:space="preserve" font-family="Helvetica-Bold" font-weight="bold" font-size="72.0" fill="#000000" transform="matrix(1.00, 0.00, -0.00, -1.00, 657.3, 17.0)">o</text><text xml:space="preserve" font-family="Helvetica-Bold" font-weight="bold" font-size="72.0" fill="#000000" transform="matrix(1.00, 0.00, -0.00, -1.00, 701.3, 17.0)">l</text><g><clipPath id="clip-62"><path d="M -0.1 8.8 L 721.1 8.8 L 721.1 14.4 L -0.1 14.4 Z M -0.1 8.8 "></path></clipPath><g clip-path="url(#clip-62)"><path d="M 4.5 78.9 L 724.7 78.9 " fill="none" stroke="#000000" stroke-width="3.55" stroke-miterlimit="0.00" transform="matrix(1.00, 0.00, 0.00, -1.00, -3.6, 90.5)"></path></g></g></g></svg>