<?xml version="1.0" encoding="UTF-8" standalone="no"?><svg xmlns="http://www.w3.org/2000/svg" xmlns:xlink="http://www.w3.org/1999/xlink" clip-rule="evenodd" stroke-miterlimit="4.00" viewBox="0 0 1024 768"><desc>SVG generated by Keynote</desc><defs></defs><g transform="matrix(1.00, 0.00, -0.00, -1.00, 0.0, 768.0)"><path d="M 0.0 768.0 L 1024.0 768.0 L 1024.0 0.0 L 0.0 0.0 Z M 0.0 768.0 " fill="#FEFFFF"></path><text xml:space="preserve" font-family="Helvetica" font-size="72.0" fill="#000000" transform="matrix(1.00, 0.00, -0.00, -1.00, 171.0, 652.0)">F</text><text xml:space="preserve" font-family="Helvetica" font-size="72.0" fill="#000000" transform="matrix(1.00, 0.00, -0.00, -1.00, 215.0, 652.0)">u</text><text xml:space="preserve" font-family="Helvetica" font-size="72.0" fill="#000000" transform="matrix(1.00, 0.00, -0.00, -1.00, 255.0, 652.0)">n</text><text xml:space="preserve" font-family="Helvetica" font-size="72.0" fill="#000000" transform="matrix(1.00, 0.00, -0.00, -1.00, 295.1, 652.0)">c</text><text xml:space="preserve" font-family="Helvetica" font-size="72.0" fill="#000000" transform="matrix(1.00, 0.00, -0.00, -1.00, 331.1, 652.0)">t</text><text xml:space="preserve" font-family="Helvetica" font-size="72.0" fill="#000000" transform="matrix(1.00, 0.00, -0.00, -1.00, 351.1, 652.0)">i</text><text xml:space="preserve" font-family="Helvetica" font-size="72.0" fill="#000000" transform="matrix(1.00, 0.00, -0.00, -1.00, 367.1, 652.0)">o</text><text xml:space="preserve" font-family="Helvetica" font-size="72.0" fill="#000000" transform="matrix(1.00, 0.00, -0.00, -1.00, 407.1, 652.0)">n</text><text xml:space="preserve" font-family="Helvetica" font-size="72.0" fill="#000000" transform="matrix(1.00, 0.00, -0.00, -1.00, 447.2, 652.0)">s</text><text xml:space="preserve" font-family="Helvetica" font-size="72.0" fill="#000000" transform="matrix(1.00, 0.00, -0.00, -1.00, 483.2, 652.0)"> </text><text xml:space="preserve" font-family="Helvetica" font-size="72.0" fill="#000000" transform="matrix(1.00, 0.00, -0.00, -1.00, 503.2, 652.0)">a</text><text xml:space="preserve" font-family="Helvetica" font-size="72.0" fill="#000000" transform="matrix(1.00, 0.00, -0.00, -1.00, 543.2, 652.0)">s</text><text xml:space="preserve" font-family="Helvetica" font-size="72.0" fill="#000000" transform="matrix(1.00, 0.00, -0.00, -1.00, 579.2, 652.0)"> </text><text xml:space="preserve" font-family="Helvetica" font-size="72.0" fill="#000000" transform="matrix(1.00, 0.00, -0.00, -1.00, 599.2, 652.0)">B</text><text xml:space="preserve" font-family="Helvetica" font-size="72.0" fill="#000000" transform="matrix(1.00, 0.00, -0.00, -1.00, 647.3, 652.0)">o</text><text xml:space="preserve" font-family="Helvetica" font-size="72.0" fill="#000000" transform="matrix(1.00, 0.00, -0.00, -1.00, 687.3, 652.0)">x</text><text xml:space="preserve" font-family="Helvetica" font-size="72.0" fill="#000000" transform="matrix(1.00, 0.00, -0.00, -1.00, 723.3, 652.0)">e</text><text xml:space="preserve" font-family="Helvetica" font-size="72.0" fill="#000000" transform="matrix(1.00, 0.00, -0.00, -1.00, 763.4, 652.0)">s</text><g><clipPath id="clip-10"><path d="M 170.3 643.8 L 799.6 643.8 L 799.6 649.4 L 170.3 649.4 Z M 170.3 643.8 "></path></clipPath><g clip-path="url(#clip-10)"><path d="M 4.5 78.9 L 632.8 78.9 " fill="none" stroke="#000000" stroke-width="3.55" stroke-miterlimit="0.00" transform="matrix(1.00, 0.00, 0.00, -1.00, 166.8, 725.5)"></path></g></g><image xlink:href="../../90FF3EC0-2F74-498A-B10A-823C7971C621/assets/3777C8245D3300E8D4B38B3C4F08C588.png" width="550.00" height="400.00" transform="matrix(1.43, 0.00, -0.00, -1.43, 93.0, 612.0)"></image><text xml:space="preserve" font-family="Helvetica-Bold" font-weight="bold" font-size="24.0" fill="#000000" transform="matrix(1.00, 0.00, -0.00, -1.00, 22.0, 728.0)">C</text><text xml:space="preserve" font-family="Helvetica-Bold" font-weight="bold" font-size="24.0" fill="#000000" transform="matrix(1.00, 0.00, -0.00, -1.00, 39.3, 728.0)">a</text><text xml:space="preserve" font-family="Helvetica-Bold" font-weight="bold" font-size="24.0" fill="#000000" transform="matrix(1.00, 0.00, -0.00, -1.00, 52.7, 728.0)">t</text><text xml:space="preserve" font-family="Helvetica-Bold" font-weight="bold" font-size="24.0" fill="#000000" transform="matrix(1.00, 0.00, -0.00, -1.00, 60.7, 728.0)">e</text><text xml:space="preserve" font-family="Helvetica-Bold" font-weight="bold" font-size="24.0" fill="#000000" transform="matrix(1.00, 0.00, -0.00, -1.00, 74.0, 728.0)">g</text><text xml:space="preserve" font-family="Helvetica-Bold" font-weight="bold" font-size="24.0" fill="#000000" transform="matrix(1.00, 0.00, -0.00, -1.00, 88.7, 728.0)">o</text><text xml:space="preserve" font-family="Helvetica-Bold" font-weight="bold" font-size="24.0" fill="#000000" transform="matrix(1.00, 0.00, -0.00, -1.00, 103.3, 728.0)">r</text><text xml:space="preserve" font-family="Helvetica-Bold" font-weight="bold" font-size="24.0" fill="#000000" transform="matrix(1.00, 0.00, -0.00, -1.00, 112.7, 728.0)">y</text><text xml:space="preserve" font-family="Helvetica-Bold" font-weight="bold" font-size="24.0" fill="#000000" transform="matrix(1.00, 0.00, -0.00, -1.00, 126.0, 728.0)"> </text><text xml:space="preserve" font-family="Helvetica-Bold" font-weight="bold" font-size="24.0" fill="#000000" transform="matrix(1.00, 0.00, -0.00, -1.00, 132.7, 728.0)">o</text><text xml:space="preserve" font-family="Helvetica-Bold" font-weight="bold" font-size="24.0" fill="#000000" transform="matrix(1.00, 0.00, -0.00, -1.00, 147.4, 728.0)">f</text><text xml:space="preserve" font-family="Helvetica-Bold" font-weight="bold" font-size="24.0" fill="#000000" transform="matrix(1.00, 0.00, -0.00, -1.00, 155.4, 728.0)"> </text><text xml:space="preserve" font-family="Helvetica-Bold" font-weight="bold" font-size="24.0" fill="#000000" transform="matrix(1.00, 0.00, -0.00, -1.00, 162.0, 728.0)">S</text><text xml:space="preserve" font-family="Helvetica-Bold" font-weight="bold" font-size="24.0" fill="#000000" transform="matrix(1.00, 0.00, -0.00, -1.00, 178.0, 728.0)">e</text><text xml:space="preserve" font-family="Helvetica-Bold" font-weight="bold" font-size="24.0" fill="#000000" transform="matrix(1.00, 0.00, -0.00, -1.00, 191.4, 728.0)">t</text><text xml:space="preserve" font-family="Helvetica-Bold" font-weight="bold" font-size="24.0" fill="#000000" transform="matrix(1.00, 0.00, -0.00, -1.00, 199.4, 728.0)">s</text></g></svg>