<?xml version="1.0" encoding="UTF-8" standalone="no"?><svg xmlns="http://www.w3.org/2000/svg" xmlns:xlink="http://www.w3.org/1999/xlink" clip-rule="evenodd" stroke-miterlimit="4.00" viewBox="0 0 1024 768"><desc>SVG generated by Keynote</desc><defs></defs><g transform="matrix(1.00, 0.00, -0.00, -1.00, 0.0, 768.0)"><path d="M 0.0 768.0 L 1024.0 768.0 L 1024.0 0.0 L 0.0 0.0 Z M 0.0 768.0 " fill="#FEFFFF"></path><text xml:space="preserve" font-family="Helvetica-Bold" font-weight="bold" font-size="64.8" fill="#000000" transform="matrix(1.00, 0.00, -0.00, -1.00, 253.0, 663.0)">S</text><text xml:space="preserve" font-family="Helvetica-Bold" font-weight="bold" font-size="64.8" fill="#000000" transform="matrix(1.00, 0.00, -0.00, -1.00, 296.2, 663.0)">t</text><text xml:space="preserve" font-family="Helvetica-Bold" font-weight="bold" font-size="64.8" fill="#000000" transform="matrix(1.00, 0.00, -0.00, -1.00, 317.8, 663.0)">r</text><text xml:space="preserve" font-family="Helvetica-Bold" font-weight="bold" font-size="64.8" fill="#000000" transform="matrix(1.00, 0.00, -0.00, -1.00, 343.0, 663.0)">i</text><text xml:space="preserve" font-family="Helvetica-Bold" font-weight="bold" font-size="64.8" fill="#000000" transform="matrix(1.00, 0.00, -0.00, -1.00, 361.0, 663.0)">n</text><text xml:space="preserve" font-family="Helvetica-Bold" font-weight="bold" font-size="64.8" fill="#000000" transform="matrix(1.00, 0.00, -0.00, -1.00, 400.6, 663.0)">g</text><text xml:space="preserve" font-family="Helvetica-Bold" font-weight="bold" font-size="64.8" fill="#000000" transform="matrix(1.00, 0.00, -0.00, -1.00, 440.2, 663.0)"> </text><text xml:space="preserve" font-family="Helvetica-Bold" font-weight="bold" font-size="64.8" fill="#000000" transform="matrix(1.00, 0.00, -0.00, -1.00, 458.2, 663.0)">D</text><text xml:space="preserve" font-family="Helvetica-Bold" font-weight="bold" font-size="64.8" fill="#000000" transform="matrix(1.00, 0.00, -0.00, -1.00, 505.0, 663.0)">i</text><text xml:space="preserve" font-family="Helvetica-Bold" font-weight="bold" font-size="64.8" fill="#000000" transform="matrix(1.00, 0.00, -0.00, -1.00, 523.0, 663.0)">a</text><text xml:space="preserve" font-family="Helvetica-Bold" font-weight="bold" font-size="64.8" fill="#000000" transform="matrix(1.00, 0.00, -0.00, -1.00, 559.0, 663.0)">g</text><text xml:space="preserve" font-family="Helvetica-Bold" font-weight="bold" font-size="64.8" fill="#000000" transform="matrix(1.00, 0.00, -0.00, -1.00, 598.6, 663.0)">r</text><text xml:space="preserve" font-family="Helvetica-Bold" font-weight="bold" font-size="64.8" fill="#000000" transform="matrix(1.00, 0.00, -0.00, -1.00, 623.8, 663.0)">a</text><text xml:space="preserve" font-family="Helvetica-Bold" font-weight="bold" font-size="64.8" fill="#000000" transform="matrix(1.00, 0.00, -0.00, -1.00, 659.9, 663.0)">m</text><text xml:space="preserve" font-family="Helvetica-Bold" font-weight="bold" font-size="64.8" fill="#000000" transform="matrix(1.00, 0.00, -0.00, -1.00, 717.5, 663.0)">s</text><text xml:space="preserve" font-family="Helvetica-Bold" font-weight="bold" font-size="64.8" fill="#000000" transform="matrix(1.00, 0.00, -0.00, -1.00, 753.5, 663.0)">,</text><text xml:space="preserve" font-family="Helvetica-Bold" font-weight="bold" font-size="64.8" fill="#000000" transform="matrix(1.00, 0.00, -0.00, -1.00, 771.5, 663.0)"> </text><text xml:space="preserve" font-family="Helvetica-Bold" font-weight="bold" font-size="64.8" fill="#000000" transform="matrix(1.00, 0.00, -0.00, -1.00, 82.0, 585.0)">C</text><text xml:space="preserve" font-family="Helvetica-Bold" font-weight="bold" font-size="64.8" fill="#000000" transform="matrix(1.00, 0.00, -0.00, -1.00, 128.8, 585.0)">a</text><text xml:space="preserve" font-family="Helvetica-Bold" font-weight="bold" font-size="64.8" fill="#000000" transform="matrix(1.00, 0.00, -0.00, -1.00, 164.9, 585.0)">t</text><text xml:space="preserve" font-family="Helvetica-Bold" font-weight="bold" font-size="64.8" fill="#000000" transform="matrix(1.00, 0.00, -0.00, -1.00, 186.4, 585.0)">e</text><text xml:space="preserve" font-family="Helvetica-Bold" font-weight="bold" font-size="64.8" fill="#000000" transform="matrix(1.00, 0.00, -0.00, -1.00, 222.5, 585.0)">g</text><text xml:space="preserve" font-family="Helvetica-Bold" font-weight="bold" font-size="64.8" fill="#000000" transform="matrix(1.00, 0.00, -0.00, -1.00, 262.1, 585.0)">o</text><text xml:space="preserve" font-family="Helvetica-Bold" font-weight="bold" font-size="64.8" fill="#000000" transform="matrix(1.00, 0.00, -0.00, -1.00, 301.6, 585.0)">r</text><text xml:space="preserve" font-family="Helvetica-Bold" font-weight="bold" font-size="64.8" fill="#000000" transform="matrix(1.00, 0.00, -0.00, -1.00, 326.9, 585.0)">i</text><text xml:space="preserve" font-family="Helvetica-Bold" font-weight="bold" font-size="64.8" fill="#000000" transform="matrix(1.00, 0.00, -0.00, -1.00, 344.9, 585.0)">e</text><text xml:space="preserve" font-family="Helvetica-Bold" font-weight="bold" font-size="64.8" fill="#000000" transform="matrix(1.00, 0.00, -0.00, -1.00, 380.9, 585.0)">s</text><text xml:space="preserve" font-family="Helvetica-Bold" font-weight="bold" font-size="64.8" fill="#000000" transform="matrix(1.00, 0.00, -0.00, -1.00, 417.0, 585.0)">,</text><text xml:space="preserve" font-family="Helvetica-Bold" font-weight="bold" font-size="64.8" fill="#000000" transform="matrix(1.00, 0.00, -0.00, -1.00, 434.9, 585.0)"> </text><text xml:space="preserve" font-family="Helvetica-Bold" font-weight="bold" font-size="64.8" fill="#000000" transform="matrix(1.00, 0.00, -0.00, -1.00, 452.9, 585.0)">a</text><text xml:space="preserve" font-family="Helvetica-Bold" font-weight="bold" font-size="64.8" fill="#000000" transform="matrix(1.00, 0.00, -0.00, -1.00, 489.0, 585.0)">n</text><text xml:space="preserve" font-family="Helvetica-Bold" font-weight="bold" font-size="64.8" fill="#000000" transform="matrix(1.00, 0.00, -0.00, -1.00, 528.6, 585.0)">d</text><text xml:space="preserve" font-family="Helvetica-Bold" font-weight="bold" font-size="64.8" fill="#000000" transform="matrix(1.00, 0.00, -0.00, -1.00, 568.1, 585.0)"> </text><text xml:space="preserve" font-family="Helvetica-Bold" font-weight="bold" font-size="64.8" fill="#000000" transform="matrix(1.00, 0.00, -0.00, -1.00, 586.1, 585.0)">E</text><text xml:space="preserve" font-family="Helvetica-Bold" font-weight="bold" font-size="64.8" fill="#000000" transform="matrix(1.00, 0.00, -0.00, -1.00, 629.3, 585.0)">n</text><text xml:space="preserve" font-family="Helvetica-Bold" font-weight="bold" font-size="64.8" fill="#000000" transform="matrix(1.00, 0.00, -0.00, -1.00, 668.9, 585.0)">r</text><text xml:space="preserve" font-family="Helvetica-Bold" font-weight="bold" font-size="64.8" fill="#000000" transform="matrix(1.00, 0.00, -0.00, -1.00, 694.1, 585.0)">i</text><text xml:space="preserve" font-family="Helvetica-Bold" font-weight="bold" font-size="64.8" fill="#000000" transform="matrix(1.00, 0.00, -0.00, -1.00, 712.1, 585.0)">c</text><text xml:space="preserve" font-family="Helvetica-Bold" font-weight="bold" font-size="64.8" fill="#000000" transform="matrix(1.00, 0.00, -0.00, -1.00, 748.2, 585.0)">h</text><text xml:space="preserve" font-family="Helvetica-Bold" font-weight="bold" font-size="64.8" fill="#000000" transform="matrix(1.00, 0.00, -0.00, -1.00, 787.7, 585.0)">m</text><text xml:space="preserve" font-family="Helvetica-Bold" font-weight="bold" font-size="64.8" fill="#000000" transform="matrix(1.00, 0.00, -0.00, -1.00, 845.4, 585.0)">e</text><text xml:space="preserve" font-family="Helvetica-Bold" font-weight="bold" font-size="64.8" fill="#000000" transform="matrix(1.00, 0.00, -0.00, -1.00, 881.4, 585.0)">n</text><text xml:space="preserve" font-family="Helvetica-Bold" font-weight="bold" font-size="64.8" fill="#000000" transform="matrix(1.00, 0.00, -0.00, -1.00, 921.0, 585.0)">t</text><text xml:space="preserve" font-family="Helvetica-Light" font-size="36.0" fill="#000000" transform="matrix(1.00, 0.00, -0.00, -1.00, 480.0, 519.0)">w</text><text xml:space="preserve" font-family="Helvetica-Light" font-size="36.0" fill="#000000" transform="matrix(1.00, 0.00, -0.00, -1.00, 506.0, 519.0)">i</text><text xml:space="preserve" font-family="Helvetica-Light" font-size="36.0" fill="#000000" transform="matrix(1.00, 0.00, -0.00, -1.00, 514.0, 519.0)">t</text><text xml:space="preserve" font-family="Helvetica-Light" font-size="36.0" fill="#000000" transform="matrix(1.00, 0.00, -0.00, -1.00, 524.0, 519.0)">h</text><text xml:space="preserve" font-family="Helvetica-Light" font-size="36.0" fill="#000000" transform="matrix(1.00, 0.00, -0.00, -1.00, 544.0, 519.0)"> </text><text xml:space="preserve" font-family="Helvetica-Light" font-size="56.0" fill="#000000" transform="matrix(1.00, 0.00, -0.00, -1.00, 304.0, 457.0)">D</text><text xml:space="preserve" font-family="Helvetica-Light" font-size="56.0" fill="#000000" transform="matrix(1.00, 0.00, -0.00, -1.00, 344.4, 457.0)">a</text><text xml:space="preserve" font-family="Helvetica-Light" font-size="56.0" fill="#000000" transform="matrix(1.00, 0.00, -0.00, -1.00, 375.6, 457.0)">v</text><text xml:space="preserve" font-family="Helvetica-Light" font-size="56.0" fill="#000000" transform="matrix(1.00, 0.00, -0.00, -1.00, 403.6, 457.0)">i</text><text xml:space="preserve" font-family="Helvetica-Light" font-size="56.0" fill="#000000" transform="matrix(1.00, 0.00, -0.00, -1.00, 416.0, 457.0)">d</text><text xml:space="preserve" font-family="Helvetica-Light" font-size="56.0" fill="#000000" transform="matrix(1.00, 0.00, -0.00, -1.00, 450.2, 457.0)"> </text><text xml:space="preserve" font-family="Helvetica-Light" font-size="56.0" fill="#000000" transform="matrix(1.00, 0.00, -0.00, -1.00, 465.8, 457.0)">J</text><text xml:space="preserve" font-family="Helvetica-Light" font-size="56.0" fill="#000000" transform="matrix(1.00, 0.00, -0.00, -1.00, 493.8, 457.0)">a</text><text xml:space="preserve" font-family="Helvetica-Light" font-size="56.0" fill="#000000" transform="matrix(1.00, 0.00, -0.00, -1.00, 524.9, 457.0)">z</text><text xml:space="preserve" font-family="Helvetica-Light" font-size="56.0" fill="#000000" transform="matrix(1.00, 0.00, -0.00, -1.00, 552.9, 457.0)"> </text><text xml:space="preserve" font-family="Helvetica-Light" font-size="56.0" fill="#000000" transform="matrix(1.00, 0.00, -0.00, -1.00, 568.5, 457.0)">M</text><text xml:space="preserve" font-family="Helvetica-Light" font-size="56.0" fill="#000000" transform="matrix(1.00, 0.00, -0.00, -1.00, 615.1, 457.0)">y</text><text xml:space="preserve" font-family="Helvetica-Light" font-size="56.0" fill="#000000" transform="matrix(1.00, 0.00, -0.00, -1.00, 643.1, 457.0)">e</text><text xml:space="preserve" font-family="Helvetica-Light" font-size="56.0" fill="#000000" transform="matrix(1.00, 0.00, -0.00, -1.00, 674.3, 457.0)">r</text><text xml:space="preserve" font-family="Helvetica-Light" font-size="56.0" fill="#000000" transform="matrix(1.00, 0.00, -0.00, -1.00, 692.9, 457.0)">s</text><image xlink:href="45BF11A60108C4DE6589266156679FCA.png" width="600.00" height="339.00" transform="matrix(1.00, 0.00, -0.00, -1.00, 212.0, 413.0)"></image></g></svg>